<svg width="364" height="84" viewBox="0 0 364 84" fill="none" xmlns="http://www.w3.org/2000/svg">
<path fill-rule="evenodd" clip-rule="evenodd" d="M253.488 0.475902C254.701 0.483525 254.971 1.25522 254.971 4.72061V8.95601H250.501C243.48 8.95601 242.264 10.2698 242.264 17.8596V24.1263L247.982 24.3762L253.7 24.627L253.963 27.8035L254.226 30.98H248.245H242.264V52.5805V74.181H237.196H232.128L231.902 52.7923L231.676 31.4036L227.18 31.1461L222.685 30.8886L222.945 27.7578L223.205 24.627L227.652 24.3711L232.099 24.1145V16.9168C232.099 8.86621 233.177 5.87857 237.081 3.09846C240.192 0.882507 245.205 -0.374565 249.041 0.0997987C250.672 0.301403 252.673 0.470819 253.488 0.475902ZM119.862 7.68539V12.7679H113.932H108.002L107.74 8.64004C107.337 2.29034 107.565 2.06502 114.132 2.35218L119.862 2.60292V7.68539ZM85.6311 23.3707C91.6996 24.5219 96.3111 27.6951 98.3094 32.0948C99.7367 35.2391 99.9205 37.8117 99.9366 54.91L99.9552 74.181H94.8728H89.7903V56.0942C89.7903 38.6605 89.72 37.9032 87.8547 35.129C84.3817 29.9627 76.3887 28.9471 70.5235 32.9266C65.6621 36.2252 65.225 38.2234 65.225 57.1556V74.181H60.1426H55.0601V49.1922V24.2034H59.719H64.378V27.6197V31.0368L67.3461 28.0678C70.0271 25.3876 76.01 22.7287 79.7219 22.5686C80.4733 22.5355 83.1323 22.8972 85.6311 23.3707ZM159.239 24.7718C164.619 26.97 169.416 33.2748 169.416 38.1463C169.416 40.2115 169.211 40.2979 164.333 40.2979C159.485 40.2979 159.251 40.2005 159.251 38.1938C159.251 37.0358 158.18 34.891 156.871 33.4256C153.696 29.8721 147.557 29.1376 143.31 31.8025C137.96 35.1604 135.459 45.0627 137.261 55.7478C138.156 61.053 138.734 62.3355 141.475 65.0749C144.238 67.8381 145.166 68.2515 148.605 68.2515C150.779 68.2515 153.631 67.6967 154.943 67.0182C157.298 65.8001 160.098 61.225 160.098 58.5939C160.098 57.5004 161.097 57.2395 165.286 57.2395H170.475L169.953 59.8485C167.836 70.4344 158.241 76.8078 146.301 75.5601C132.459 74.1133 125.378 64.0906 126.389 47.3786C126.887 39.14 129.42 32.9546 133.984 28.8319C140.584 22.8693 150.631 21.2539 159.239 24.7718ZM209.948 25.6545C217.121 29.0487 221.073 36.4251 221.082 46.4392L221.087 51.3099H202.76H184.433L184.965 55.1912C186.194 64.1559 190.289 68.243 198.047 68.2481C204.231 68.2523 207.056 66.5954 208.843 61.9162L210.306 58.0865H215.273C219.708 58.0865 220.24 58.2721 220.24 59.8146C220.24 62.5413 217.223 67.75 214.01 70.5716C209.855 74.2192 205.652 75.4466 197.369 75.4279C190.998 75.4144 189.643 75.1238 185.602 72.9019C177.973 68.7097 174.498 61.391 174.498 49.5133C174.498 32.1609 185.204 21.5648 201.181 23.1031C203.511 23.3275 207.455 24.4753 209.948 25.6545ZM10.3174 42.6274C10.6122 62.6735 11.1001 64.958 15.5947 67.3637C18.7416 69.0477 24.6991 68.8199 28.0569 66.8868C33.4892 63.7594 34.2719 60.6972 34.5811 41.3568L34.8547 24.2034H39.8754H44.8952V49.1922V74.181H39.8127H34.7302V71.1011V68.0202L32.4185 70.3319C28.8845 73.8659 25.5335 75.2458 19.4218 75.6829C9.93792 76.3614 3.22313 71.9702 0.935175 63.5926C0.401515 61.6409 0.00762415 52.5729 0.00508291 42.2038L0 24.2034H5.02318H10.0464L10.3174 42.6274ZM119.239 49.404L119.463 74.181H114.368H109.273V49.1499V24.1187L114.144 24.3728L119.015 24.627L119.239 49.404ZM191.399 32.0414C188.214 34.1879 185.959 37.6821 185.098 41.8032L184.518 44.5782L197.509 44.3444L210.499 44.1098L210.219 41.145C209.361 32.0829 198.869 27.0081 191.399 32.0414Z" fill="white"/>
<path fill-rule="evenodd" clip-rule="evenodd" d="M322.244 0.598061C334.463 3.19522 344.404 13.02 347.363 25.4225C348.661 30.8619 348.385 37.931 346.676 43.0577C343.762 51.7972 337.956 58.5276 329.922 62.479C323.012 65.878 317.006 66.8092 309.944 65.5769C286.274 61.4476 274.711 35.1515 287.669 14.923C293.671 5.55306 303.744 0.0425996 314.95 0.00021144C317.372 -0.00861942 320.654 0.26028 322.244 0.598061ZM307.904 2.06001C307.42 2.18232 306.544 2.46579 305.957 2.68921C304.993 3.05613 304.956 3.16166 305.572 3.77982C306.188 4.39754 306.419 4.35957 307.96 3.3895C308.898 2.79827 309.963 2.19998 310.326 2.05957C311.141 1.74475 309.149 1.74475 307.904 2.06001ZM321.996 3.01728C323.563 3.92509 324.356 4.16308 324.748 3.84252C325.684 3.07688 325.378 2.78767 323.063 2.25208C319.743 1.4838 319.567 1.61008 321.996 3.01728ZM310.247 3.7573C309.113 4.33705 308.061 5.01261 307.91 5.25811C307.654 5.67316 309.737 6.95452 310.016 6.55271C310.085 6.45292 310.699 5.61267 311.379 4.68587C312.06 3.75951 312.547 2.93427 312.462 2.85214C312.377 2.77001 311.38 3.17756 310.247 3.7573ZM319.227 4.60462C320.786 6.8225 320.708 6.78629 322.183 5.96678C323.25 5.37468 323.248 5.37114 320.862 3.99971C319.548 3.24423 318.328 2.6243 318.152 2.62165C317.975 2.61945 318.459 3.5118 319.227 4.60462ZM313.078 4.68101C312.292 5.68022 311.647 6.70195 311.647 6.95098C311.647 7.42653 314.197 8.1564 314.566 7.78638C314.683 7.66849 314.718 6.51297 314.644 5.21837L314.51 2.8645L313.078 4.68101ZM316.051 5.52259V7.9864L317.482 7.67909C318.269 7.50998 318.984 7.30731 319.07 7.22916C319.231 7.08301 316.458 3.05922 316.196 3.05922C316.116 3.05922 316.051 4.16794 316.051 5.52259ZM300.754 4.79184C293.308 8.90835 288.259 14.7522 285.483 22.4659C284.553 25.0538 283.302 31.7595 283.751 31.7595C283.82 31.7595 285.268 30.8575 286.967 29.7554C290.668 27.3547 291.157 26.6147 290.532 24.3571C289.769 21.604 289.962 17.3648 290.938 15.4476C292.699 11.9863 297.108 9.72211 300.733 10.4171C303.229 10.8957 306.049 12.45 308.184 14.5252C311.426 17.6743 311.811 20.6371 309.472 24.4317C308.973 25.2406 308.565 26.6244 308.565 27.5066C308.565 28.3888 308.367 29.1103 308.124 29.1103C307.882 29.1103 307.684 29.3858 307.684 29.7223C307.684 30.0587 306.941 31.0623 306.033 31.952L304.381 33.5703L301.243 33.2807C299.207 33.0926 298.005 33.1548 297.818 33.4581C297.659 33.7151 297.823 35.7727 298.182 38.0303C298.541 40.2884 298.955 43.0789 299.103 44.2318C299.42 46.715 299.973 47.1111 303.653 47.497C305.688 47.7103 306.497 47.6109 307.295 47.0506C308.45 46.2391 310.326 46.085 310.326 46.8016C310.326 47.0608 310.694 47.1557 311.145 47.0126C312.425 46.6051 313.014 47.6741 312.512 49.495C311.774 52.1769 310.828 52.6675 306.01 52.8666C298.292 53.1859 296.467 53.1788 295.504 52.826C294.68 52.5244 294.48 52.6993 294.009 54.1316C293.467 55.7768 293.474 55.7945 295.4 57.5103C297.311 59.2129 297.373 59.2324 300.198 59.0186C301.923 58.8879 304.388 58.2671 306.401 57.4565C308.238 56.7164 311.188 55.8108 312.956 55.4439C314.724 55.077 316.361 54.5851 316.595 54.3511C317.146 53.7978 317.131 52.5792 316.518 48.5382C316.02 45.2527 315.994 45.2054 313.171 42.523C310.249 39.7453 309.837 38.7584 310.973 37.2528C311.328 36.7816 311.626 35.9719 311.633 35.4539C311.642 34.8905 312.001 34.4189 312.528 34.2807C313.123 34.1249 313.409 33.6785 313.409 32.9049C313.409 32.1914 313.653 31.7595 314.056 31.7595C314.527 31.7595 314.677 31.3123 314.606 30.1201C314.51 28.4895 314.521 28.4789 316.548 28.1773C319.152 27.7901 320.26 27.1812 322.436 24.9421C325.085 22.2165 327.109 21.3811 331.023 21.3965C334.656 21.4106 336.071 21.9529 339.278 24.5571C346.295 30.2561 346.98 40.6293 340.726 46.4943C337.969 49.08 335.39 50.3507 332.622 50.488C330.392 50.5989 330.361 50.6205 330.243 52.1081C330.099 53.9122 331.255 55.9623 333.198 57.3496L334.579 58.3356L337.591 55.2611C341.157 51.6206 343.73 47.4348 345.388 42.5773C346.45 39.468 346.598 38.3575 346.625 33.3049C346.651 28.459 346.495 27.0514 345.624 24.2688C344.601 21.004 342.247 15.864 341.774 15.864C341.492 15.864 337.679 18.0183 336.867 18.6355C336.47 18.9376 336.45 19.2811 336.793 19.9222C337.43 21.1166 337.115 21.283 335.871 20.4092C335.297 20.0061 334.234 19.6114 333.508 19.5314C331.742 19.3376 331.555 19.0594 332.953 18.7075C333.587 18.5481 334.106 18.1799 334.106 17.8893C334.106 17.461 332.32 14.4563 330.96 12.5957C330.799 12.3771 329.351 12.7732 327.74 13.477C325.644 14.3923 324.873 14.9451 325.024 15.4202C326.61 20.3673 326.58 20.1999 325.913 20.4565C325.24 20.7157 324.951 20.1805 323.945 16.8129C323.523 15.4008 323.217 15.0105 322.691 15.2153C322.309 15.3641 320.658 15.5999 319.023 15.739L316.051 15.992V19.1981C316.051 22.0156 316.144 22.386 316.821 22.2522C317.246 22.1683 318.979 21.9966 320.675 21.8707L323.757 21.6416L322.717 22.5057C322.146 22.9812 321.155 23.3724 320.516 23.3751C319.877 23.3777 318.611 23.5031 317.702 23.6537C316.335 23.8802 316.051 24.1076 316.051 24.9735C316.051 25.5987 315.791 26.0195 315.405 26.0195C314.883 26.0195 314.735 25.0671 314.634 21.0521L314.51 16.0847L312.783 15.864C310.241 15.539 310.187 14.5393 312.712 14.5393H314.73V11.9479V9.35651L313.078 9.08276C310.52 8.65843 310.445 8.6889 309.393 10.5655C308.848 11.5369 308.253 12.3316 308.069 12.3316C307.241 12.3316 307.249 11.2909 308.09 9.8634C308.593 9.00769 309.005 8.23897 309.005 8.15551C309.005 8.07162 308.343 7.61198 307.534 7.13334L306.063 6.26306L304.223 7.79566C303.016 8.80105 302.127 9.23023 301.641 9.04302C301.034 8.80988 301.248 8.45621 302.812 7.10553C304.593 5.56763 304.683 5.38616 304.117 4.47702C303.783 3.9401 303.408 3.5043 303.284 3.50871C303.161 3.51313 302.022 4.09067 300.754 4.79184ZM326.38 4.40505C325.95 4.88235 325.679 5.33273 325.778 5.40602C325.877 5.47976 327.096 6.59819 328.487 7.89191L331.014 10.2436L332.557 9.19049C333.405 8.61119 334.101 8.00142 334.102 7.83584C334.107 7.39871 332.023 5.99284 329.423 4.68013C327.183 3.54801 327.156 3.5458 326.38 4.40505ZM322.62 7.32321L321.482 8.03144L322.8 10.5125C323.525 11.8773 324.179 13.0694 324.253 13.1622C324.455 13.4169 329.262 11.3898 329.262 11.0494C329.262 10.4613 325.033 6.59201 324.403 6.60349C324.048 6.60967 323.245 6.93377 322.62 7.32321ZM279.234 11.1174C278.429 14.6422 276.4 18.8258 274.705 20.4543L273.383 21.7241L273.071 20.4759C272.619 18.6704 273.574 15.5505 275.398 12.8694C276.729 10.9147 279.176 8.35774 279.716 8.35774C279.797 8.35774 279.58 9.5998 279.234 11.1174ZM355.913 13.877C357.144 15.966 357.864 18.866 357.554 20.49L357.333 21.6526L356.235 20.6348C354.019 18.5799 351.803 13.9636 351.085 9.90314L350.773 8.13697L352.822 10.1239C353.95 11.2167 355.341 12.9056 355.913 13.877ZM317.262 9.11543C316.094 9.29293 316.051 9.39493 316.051 11.9806V14.6612L319.023 14.3565C320.658 14.1888 322.166 13.881 322.375 13.6726C322.587 13.4607 322.215 12.3012 321.534 11.0463C320.274 8.72466 320.164 8.67477 317.262 9.11543ZM333.885 9.95922C332.917 10.6105 332.069 11.1841 332.002 11.234C331.935 11.2838 332.529 12.3171 333.323 13.53C334.117 14.7429 334.993 16.1121 335.271 16.5722C335.757 17.3771 335.871 17.359 338.244 16.1002C339.601 15.38 340.711 14.6153 340.711 14.4007C340.711 14.1857 339.571 12.8319 338.179 11.3925L335.647 8.775L333.885 9.95922ZM281.91 17.6717C280.95 20.4088 278.118 25.0362 276.125 27.1233L274.439 28.8895L274.294 27.3715C273.95 23.7751 276.136 20.0087 280.348 16.9449C281.451 16.1422 282.407 15.5394 282.473 15.6057C282.539 15.6719 282.286 16.6018 281.91 17.6717ZM350.899 17.0124C353.224 18.7234 355.235 21.3585 356.053 23.7672C356.665 25.5678 356.728 28.6687 356.153 28.6687C355.491 28.6687 352.819 25.1492 351.123 22.0416C349.498 19.0647 348.048 15.4224 348.488 15.4224C348.626 15.4224 349.711 16.1377 350.899 17.0124ZM271.811 21.0552C272.445 24.0546 272.706 34.011 272.164 34.5536C271.787 34.932 270.103 32.409 269.445 30.4795C268.7 28.297 268.817 22.2959 269.663 19.2736C270.517 16.2212 270.847 16.4949 271.811 21.0552ZM361.06 19.0652C361.372 20.0971 361.627 23.028 361.626 25.5779C361.624 29.4882 361.474 30.4954 360.667 32.0099C360.141 32.9976 359.415 34.052 359.053 34.3532C357.585 35.5745 357.586 26.7851 359.055 20.169C359.419 18.53 359.892 17.1886 360.105 17.1886C360.318 17.1886 360.748 18.0333 361.06 19.0652ZM279.059 30.4349C278.371 33.5707 276.201 39.1867 275.15 40.5485L274.33 41.6104L273.779 39.9356C272.644 36.4863 274.084 31.7768 277.451 27.9344C279.191 25.9484 279.289 25.8989 279.436 26.926C279.522 27.5203 279.352 29.0992 279.059 30.4349ZM356.01 32.1141C357.121 34.5223 357.511 38.4741 356.835 40.4866C356.355 41.9216 355.762 41.3278 354.124 37.7694C352.425 34.0785 351.272 29.8896 351.298 27.5013L351.316 25.7987L353.123 27.7856C354.117 28.8785 355.416 30.8261 356.01 32.1141ZM269.625 33.7743C271.717 37.5239 274.296 44.8116 274.129 46.4978L273.997 47.8308L272.293 46.3265C270.187 44.4667 268.842 42.3614 267.925 39.4865C266.615 35.385 266.434 29.9262 267.633 30.6685C267.852 30.8045 268.748 32.202 269.625 33.7743ZM363.511 34.6274C363.325 38.1849 363.08 39.2525 361.891 41.6735C360.624 44.2539 357.53 47.6551 356.45 47.6551C355.582 47.6551 357.687 40.601 359.917 36.0363C361.415 32.972 363.028 30.4349 363.479 30.4349C363.617 30.4349 363.631 32.3216 363.511 34.6274ZM280.099 37.3892C280.729 41.209 280.112 48.8102 278.938 51.6948L278.37 53.0896L277.612 51.9292C276.244 49.8354 275.523 46.092 275.997 43.5426C276.441 41.1569 278.854 35.7334 279.471 35.7334C279.666 35.7334 279.949 36.4787 280.099 37.3892ZM353.291 39.1461C354.405 41.3609 354.574 42.1853 354.578 45.4474C354.581 48.623 354.417 49.4901 353.508 51.0815C352.917 52.116 352.291 52.8114 352.117 52.6269C350.994 51.4334 349.929 40.809 350.583 37.3159C350.969 35.2508 351.516 35.6208 353.291 39.1461ZM272.168 48.0463C276.415 51.9999 282.708 60.9014 281.256 60.9014C280.01 60.9014 275.989 58.3303 273.936 56.2224C271.714 53.9405 268.867 48.9298 268.226 46.1724C267.945 44.9639 267.976 44.9339 268.956 45.4597C269.519 45.7618 270.964 46.9257 272.168 48.0463ZM362.482 45.9993C360.937 51.0161 358.074 55.5428 354.91 57.9731C353.088 59.3714 349.567 61.0979 349.229 60.7583C348.447 59.9746 353.741 52.7633 358.315 48.3814C361.978 44.872 363.011 44.2813 362.482 45.9993ZM284.581 50.9667C285.84 54.3515 287.42 60.5451 287.425 62.1156C287.429 63.6429 286.298 63.3246 284.182 61.203C281.101 58.113 280.017 53.0198 281.329 47.7951L281.836 45.7776L282.633 46.8268C283.073 47.4039 283.949 49.2667 284.581 50.9667ZM349.539 48.8596C350.203 52.067 349.87 55.8285 348.723 58.083C348.233 59.0478 346.873 60.7226 345.702 61.8043L343.573 63.7714L343.437 62.1267C343.171 58.9043 347.266 46.3305 348.583 46.3305C348.82 46.3305 349.251 47.4688 349.539 48.8596ZM289.948 58.0768C294.892 61.8578 300.198 67.3523 300.198 68.6907C300.198 69.4285 298.047 69.4806 295.574 68.8032C292.838 68.0539 290.984 66.3717 289.594 63.378C288.328 60.6501 287.466 56.9275 288.101 56.9275C288.29 56.9275 289.122 57.4445 289.948 58.0768ZM342.913 57.1951C342.913 58.3621 341.319 63.2464 340.446 64.753C339.156 66.9801 336.387 68.7339 333.544 69.1247C330.802 69.5018 329.948 69.1556 330.6 67.9334C331.455 66.3324 334.124 63.605 338.164 60.2064C341.72 57.2149 342.913 56.4586 342.913 57.1951ZM278.691 61.116C282.198 62.5452 287.618 65.7438 290.007 67.7939C292.187 69.6656 291.921 70.1561 288.719 70.1672C283.826 70.1835 279.471 67.6287 276.06 62.7409C274.355 60.2969 274.254 60.0183 275.078 60.0183C275.583 60.0183 277.208 60.5124 278.691 61.116ZM356.119 60.3495C356.108 61.1235 352.001 66.0957 350.285 67.4119C348.085 69.0995 344.87 70.1764 342.062 70.1672C338.839 70.1561 338.6 69.6735 340.84 67.6998C345.053 63.9869 356.142 58.6517 356.119 60.3495ZM311.665 71.6627L315.426 72.7656L317.932 71.9364C323.905 69.961 332.751 69.7031 339.83 71.2984C344.636 72.3811 344.775 72.5718 341.545 73.6368C334.544 75.9452 328.252 75.9593 324.66 73.6748C322.331 72.1943 321.513 72.1051 319.229 73.0822L317.592 73.783L318.678 74.5173C323.65 77.8814 327.712 81.6782 327.387 82.6575C327.299 82.9207 326.936 83.3207 326.58 83.5459C326.09 83.8559 325.131 83.1627 322.643 80.7015C320.834 78.9115 318.497 76.8658 317.449 76.1563L315.545 74.8652L313.934 75.7209C313.048 76.1911 310.635 78.2152 308.572 80.218C306.51 82.2209 304.711 83.8603 304.576 83.8608C304.44 83.8612 303.961 83.5914 303.51 83.2607C302.738 82.6946 302.816 82.5246 304.857 80.3297C306.049 79.0484 308.373 77.0473 310.023 75.8829C312.711 73.9852 312.934 73.7185 312.17 73.3083C311.701 73.0571 310.508 72.7215 309.518 72.5625C307.991 72.3179 307.516 72.4446 306.385 73.3993C304.612 74.8952 300.809 75.656 296.918 75.2935C293.535 74.9782 289.144 73.9419 287.475 73.065L286.398 72.4994L287.904 72.0225C288.732 71.7603 290.598 71.339 292.051 71.0856C293.505 70.8326 295.189 70.5372 295.794 70.429C296.4 70.3204 299.372 70.3058 302.4 70.3959C306.611 70.5213 308.788 70.8189 311.665 71.6627Z" fill="white"/>
</svg>
